<svg xmlns="http://www.w3.org/2000/svg" xmlns:xlink="http://www.w3.org/1999/xlink" viewBox="0 0 659.74 187.74"><defs><style>.cls-1{clip-path:url(#clip-path);}.cls-2{fill:url(#linear-gradient);}</style><clipPath id="clip-path"><path d="M119.35,119.26,108.43,2.67h34l5.31,64.12L177.83,2.67H204.1l7.65,64.07L239.84,2.67h36.81L223.19,119.26H189.88L182.43,57l-29.76,62.3Z"/></clipPath><linearGradient id="linear-gradient" x1="180.4" y1="33.32" x2="144.47" y2="98.89" gradientUnits="userSpaceOnUse"><stop offset="0.12" stop-color="#2d2d2d" stop-opacity="0"/><stop offset="1" stop-color="#2d2d2d"/></linearGradient></defs><g id="Layer_2" data-name="Layer 2"><g id="Layer_1-2" data-name="Layer 1"><path d="M46.3,121.92q-19,0-30.56-7.74A38.41,38.41,0,0,1,0,92.61L28.81,77.78q5.34,13.34,20.32,13.33,11.84,0,13-6.16a4.68,4.68,0,0,0-.67-3.5A8.31,8.31,0,0,0,58,78.78c-1.66-.77-3.22-1.44-4.66-2s-3.47-1.22-6.08-2S42.58,73.4,41.14,73Q10.16,62.13,15,34.64A39.34,39.34,0,0,1,30.31,9.49Q42.81,0,60.79,0q15,0,25.65,7T102.6,27.15l-28.15,15Q70.12,30.82,58.63,30.81q-8.67,0-10,6-.68,3.66,3,6t15,6.16a83.06,83.06,0,0,1,11.91,4.75,47,47,0,0,1,9.66,6.74,21.65,21.65,0,0,1,6.67,11.16,39.43,39.43,0,0,1,.25,16q-3,17-15.74,25.65T46.3,121.92Z"/><path d="M119.35,119.26,108.43,2.67h34l5.31,64.12L177.83,2.67H204.1l7.65,64.07L239.84,2.67h36.81L223.19,119.26H189.88L182.43,57l-29.76,62.3Z"/><g class="cls-1"><polygon class="cls-2" points="147.73 66.69 152.67 119.26 182.43 56.96 177.83 2.67 147.73 66.69"/></g><path d="M355.44,33H313L310.8,45.64h38.31l-5.33,30H305.47l-2.33,13h43.3l-5.33,30.65H264.49L285,2.67h75.79Z"/><path d="M458.53,45.14q-3.66,21.32-23.31,31.31l15,42.64H416.9l-12-36.64-10.71-.1-6.55,36.74H354.44L375.16,2.5h46.58q18.13,0,29.13,12.07T458.53,45.14Zm-55.63-12L399,54.8h13.68A11.84,11.84,0,0,0,421,52.13a12.52,12.52,0,0,0,4.25-8c.56-3.44,0-6.14-1.58-8.08s-4.08-2.91-7.41-2.91Z"/><path d="M483.19,119.26,467.36,2.67h34.48l5.5,77.45L540.15,2.67h37.14L520.5,119.26Z"/><path d="M654.41,33H611.94l-2.17,12.66h38.31l-5.33,30H604.44l-2.33,13h43.31l-5.33,30.65H563.47L584,2.67h75.78Z"/><path d="M254.08,187.44h-2.27a12.92,12.92,0,0,1-.28-3c-1,1.59-2.89,3.32-6.92,3.32-6.42,0-9.82-4.87-9.82-11.2,0-6.67,3.65-11.68,10.37-11.68,5.17,0,8.43,2.8,9.06,6.78h-2.95c-.75-2.49-2.54-4.32-6.17-4.32-5.17,0-7.22,4.13-7.22,9.08,0,4.58,2.06,8.86,7.09,8.86s6.23-3.32,6.23-7.08V178h-6.27v-2.53h9.15Z"/><path d="M278.88,180.76l-2.4,6.68h-2.94l7.93-22.26h3.64l8.27,22.26h-3.15l-2.47-6.68Zm8.12-2.53c-2.12-5.85-3.29-9-3.77-10.65h0c-.54,1.89-1.85,5.65-3.56,10.65Z"/><path d="M331.92,178c0-4.13,0-8.33.14-10.68h-.12c-.95,3.61-4.56,13.17-7.11,20.17h-2.65c-1.93-5.7-5.66-16.41-6.66-20.21h-.09c.17,2.57.24,7.52.24,11.33v8.88h-2.78V165.18h4.41c2.52,6.91,5.61,15.82,6.38,18.66h.05c.52-2.15,4.18-11.93,6.79-18.66h4.28v22.26h-2.88Z"/><path d="M370.83,177H359.75v7.87h12.16l-.38,2.53H356.86V165.18h14.5v2.53H359.75v6.8h11.08Z"/><path d="M393.58,181.24c.61,2.67,2.43,4.12,5.66,4.12,3.47,0,4.84-1.63,4.84-3.73s-1.09-3.49-5.56-4.57c-5.24-1.27-7.06-3.07-7.06-6.2,0-3.31,2.44-6,7.41-6,5.3,0,7.48,3.06,7.78,6h-3c-.39-2-1.63-3.61-4.88-3.61-2.71,0-4.23,1.22-4.23,3.34s1.25,2.92,5.15,3.86c6.35,1.55,7.47,4,7.47,6.88,0,3.59-2.66,6.4-8.1,6.4-5.6,0-8-3.06-8.47-6.48Z"/></g></g></svg>